# xmcd
#
# Track frame offsets: 
#        150
#        23663
#        38293
#        55822
#        74829
#        89051
#        109645
#        128438
#        149453
#        167584
#        181994
#        199823
#        217362
#        230683
#        248620
#        265099
#        280432
#        297638
#        313249
#        331000
#
# Disc length: 4593 seconds
#
# Revision: 0
# Processed by: cddbd v1.4PL0 Copyright (c) Steve Scherf et al.
# Submitted via: ExactAudioCopy v0.90b4
#
DISCID=3411ef14
DTITLE=Marvin Gaye  - Let's Get It On - Disc 2
DYEAR=1900
DGENRE=
TTITLE0=Lets_Get_It_On
TTITLE1=Lets_Get_It_On_Part2
TTITLE2=Please_Stay
TTITLE3=If_I_Should_Die_Tonight
TTITLE4=Come_Get_To_This
TTITLE5=Distant_Lover
TTITLE6=You_Sure_Love_To_Ball
TTITLE7=Just_To_Keep_You_Satisfi
TTITLE8=Just_To_Keep
TTITLE9=Just_To_Keep
TTITLE10=Where_Are_We_Going
TTITLE11=The_World_Is_Rated_X
TTITLE12=Im_Gonna_Give_You_Respec
TTITLE13=Try_It_You_Ll_Like_It
TTITLE14=You_Are_That_Special_One
TTITLE15=We_Can_Make_It_Baby
TTITLE16=Running_From_Love
TTITLE17=Mandota
TTITLE18=Running_From_Love
TTITLE19=Come_Get_To_This
EXTD=
EXTT0=
EXTT1=
EXTT2=
EXTT3=
EXTT4=
EXTT5=
EXTT6=
EXTT7=
EXTT8=
EXTT9=
EXTT10=
EXTT11=
EXTT12=
EXTT13=
EXTT14=
EXTT15=
EXTT16=
EXTT17=
EXTT18=
EXTT19=
PLAYORDER=
